HIERARCHY
ROOT Pelvis
{
	OFFSET 0.000000 0.000000 0.000000
	CHANNELS 6 Xposition Yposition Zposition Xrotation Yrotation Zrotation
	JOINT LeftUpLeg_virtual
	{
		OFFSET 0.000000 0.000000 0.000000
		CHANNELS 3 Xrotation Yrotation Zrotation
		JOINT LeftUpLeg
		{
			OFFSET 18.735201 -5.666702 -4.541200
			CHANNELS 3 Xrotation Yrotation Zrotation
			JOINT LeftLeg
			{
				OFFSET -0.021200 -31.938179 0.493100
				CHANNELS 3 Xrotation Yrotation Zrotation
				JOINT LeftFoot
				{
					OFFSET 0.021200 -31.938179 -4.336299
					CHANNELS 3 Xrotation Yrotation Zrotation
					JOINT LeftToeBase
					{
						OFFSET 0.943001 -26.722000 15.023500
						CHANNELS 3 Xrotation Yrotation Zrotation
						End Site
						{
							OFFSET 0 0 0
						}
					}
				}
			}
		}
	}
	JOINT RightUpLeg_virtual
	{
		OFFSET 0.000000 0.000000 0.000000
		CHANNELS 3 Xrotation Yrotation Zrotation
		JOINT RightUpLeg
		{
			OFFSET -18.735201 -5.666702 -4.541200
			CHANNELS 3 Xrotation Yrotation Zrotation
			JOINT RightLeg
			{
				OFFSET 0.018946 -31.938133 0.493100
				CHANNELS 3 Xrotation Yrotation Zrotation
				JOINT RightFoot
				{
					OFFSET -0.018946 -31.938126 -4.336299
					CHANNELS 3 Xrotation Yrotation Zrotation
					JOINT RightToeBase
					{
						OFFSET -0.943001 -26.722004 15.023500
						CHANNELS 3 Xrotation Yrotation Zrotation
						End Site
						{
							OFFSET 0 0 0
						}
					}
				}
			}
		}
	}
	JOINT Hips_virtual
	{
		OFFSET 0.000000 0.000000 0.000000
		CHANNELS 3 Xrotation Yrotation Zrotation
		JOINT Hips
		{
			OFFSET -0.000000 -0.000000 -0.000000
			CHANNELS 3 Xrotation Yrotation Zrotation
			JOINT Spine
			{
				OFFSET 0.000000 10.199997 -0.299500
				CHANNELS 3 Xrotation Yrotation Zrotation
				JOINT Spine1
				{
					OFFSET 0.000000 11.900002 -1.516600
					CHANNELS 3 Xrotation Yrotation Zrotation
					JOINT Spine2
					{
						OFFSET 0.000000 13.600006 -2.842500
						CHANNELS 3 Xrotation Yrotation Zrotation
						JOINT Neck_virtual
						{
							OFFSET 0.000000 0.000000 0.000000
							CHANNELS 3 Xrotation Yrotation Zrotation
							JOINT Neck
							{
								OFFSET 0.000000 9.624100 -2.890100
								CHANNELS 3 Xrotation Yrotation Zrotation
								JOINT Head
								{
									OFFSET 0.000000 14.068802 -1.351900
									CHANNELS 3 Xrotation Yrotation Zrotation
									End Site
									{
										OFFSET 0 0 0
									}
								}
							}
						}
						JOINT LeftShoulder_virtual
						{
							OFFSET 0.000000 0.000000 0.000000
							CHANNELS 3 Xrotation Yrotation Zrotation
							JOINT LeftShoulder
							{
								OFFSET 15.263000 10.923401 -0.547700
								CHANNELS 3 Xrotation Yrotation Zrotation
								JOINT LeftArm
								{
									OFFSET 25.438599 -2.830597 -13.032500
									CHANNELS 3 Xrotation Yrotation Zrotation
									JOINT LeftForeArm
									{
										OFFSET 29.960503 0.000000 0.000000
										CHANNELS 3 Xrotation Yrotation Zrotation
										JOINT LeftHand
										{
											OFFSET 27.849251 0.000000 0.000000
											CHANNELS 3 Xrotation Yrotation Zrotation
											End Site
											{
												OFFSET 0 0 0
											}
										}
									}
								}
							}
						}
						JOINT RightShoulder_virtual
						{
							OFFSET 0.000000 0.000000 0.000000
							CHANNELS 3 Xrotation Yrotation Zrotation
							JOINT RightShoulder
							{
								OFFSET -15.263000 10.923401 -0.547700
								CHANNELS 3 Xrotation Yrotation Zrotation
								JOINT RightArm
								{
									OFFSET -25.438599 -2.830597 -13.032500
									CHANNELS 3 Xrotation Yrotation Zrotation
									JOINT RightForeArm
									{
										OFFSET -29.960503 0.000000 0.000000
										CHANNELS 3 Xrotation Yrotation Zrotation
										JOINT RightHand
										{
											OFFSET -27.849251 0.000000 0.000000
											CHANNELS 3 Xrotation Yrotation Zrotation
											End Site
											{
												OFFSET 0 0 0
											}
										}
									}
								}
							}
						}
					}
				}
			}
		}
	}
}
MOTION
Frames: 4
Frame Time: 0.03333333
0.625848 79.154907 -1.982033 0.000000 0.000000 0.000000 2.247126 -56.219762 2.844432 -49.222130 -2.933941 25.066456 49.704485 -5.361857 3.171588 -6.774766 -7.329629 -22.595215 0.000000 0.000000 0.000000 1.726463 -55.298858 1.497024 -38.135142 -20.226299 -47.377757 56.467974 14.388722 -5.131236 -23.093356 -5.856108 26.779348 0.000000 0.000000 0.000000 1.802913 -55.685474 2.372057 -0.160959 -0.654574 -0.831321 10.792087 10.306227 -1.845782 4.297178 3.435297 -2.012842 0.000000 0.000000 0.000000 2.934244 3.926007 -2.165317 0.864677 -0.927596 0.553322 0.000000 0.000000 0.000000 3.193828 4.211069 -2.145908 -0.128179 -6.278858 -16.017719 -16.124338 -37.889474 -21.298715 2.445757 -67.672565 3.268205 0.000000 0.000000 0.000000 2.550255 4.541942 -2.286400 -3.701633 18.666205 -24.106850 -37.905754 22.027247 22.140577 156.198517 85.186959 -154.498360 0.000000 0.000000 0.000000 
0.853519 79.216812 -2.092674 0.000000 0.000000 0.000000 3.490540 -58.253755 4.170320 -48.694311 -1.346727 26.263741 48.951573 -5.883281 2.710533 -7.129175 -6.412966 -22.394906 0.000000 0.000000 0.000000 2.752315 -57.359457 2.704082 -39.209159 -19.232027 -46.488337 56.310050 14.539410 -5.010079 -22.709771 -5.729796 26.093240 0.000000 0.000000 0.000000 2.866290 -57.571740 3.435358 0.047076 -0.541484 -1.078546 11.919742 10.841653 -3.112451 4.321700 3.531238 -2.117070 0.000000 0.000000 0.000000 3.161141 4.048788 -2.384664 0.563759 -0.921380 0.764727 0.000000 0.000000 0.000000 3.483082 4.345882 -2.236988 0.084593 -7.217512 -15.383570 -20.645094 -41.733969 -24.276519 3.359604 -69.919765 3.596005 0.000000 0.000000 0.000000 2.613590 4.508975 -2.466585 -0.573420 18.361712 -16.626405 -27.244487 28.188182 16.846472 177.121463 79.642410 -174.195628 0.000000 0.000000 0.000000 
1.016698 79.373238 -2.288280 0.000000 0.000000 0.000000 4.904233 -60.337434 5.528842 -48.041635 0.641757 28.031525 48.349895 -6.543996 2.304369 -7.482397 -5.261939 -22.344202 0.000000 0.000000 0.000000 3.890986 -59.522974 3.967574 -39.964516 -18.207437 -45.031365 55.295333 14.465868 -4.736839 -22.332833 -5.411250 25.252540 0.000000 0.000000 0.000000 4.097888 -59.615578 4.593720 0.081817 -0.335098 -1.287911 12.798267 10.747013 -4.211293 4.339384 3.482999 -2.338238 0.000000 0.000000 0.000000 3.304836 3.956663 -2.703274 0.188393 -0.766745 0.875124 0.000000 0.000000 0.000000 3.643818 4.236284 -2.486579 0.362216 -8.262003 -14.365754 -26.378826 -43.857727 -27.469955 4.435416 -71.486447 3.984007 0.000000 0.000000 0.000000 2.939363 4.378952 -2.711777 1.811060 17.655955 -11.945641 -19.551823 34.221044 12.775188 -178.069274 77.209353 -178.315735 0.000000 0.000000 0.000000 
1.121833 79.701561 -2.584545 0.000000 0.000000 0.000000 6.076525 -62.503505 6.500265 -47.216247 2.818205 30.221118 47.956384 -7.293200 2.033076 -7.743210 -3.904174 -22.362157 0.000000 0.000000 0.000000 4.806638 -61.779635 4.878079 -40.427108 -17.153021 -43.060634 53.423363 14.231177 -4.339223 -21.324598 -4.668657 24.545388 0.000000 0.000000 0.000000 5.235387 -61.873495 5.582996 -0.084374 -0.165200 -1.461684 13.320658 10.170862 -4.938310 4.259845 3.402691 -2.545609 0.000000 0.000000 0.000000 3.352495 3.776132 -3.013575 -0.238954 -0.490604 0.867561 0.000000 0.000000 0.000000 3.688807 4.053852 -2.779448 0.696698 -9.249504 -12.849439 -32.394952 -43.476411 -29.457086 5.565281 -72.519165 4.525040 0.000000 0.000000 0.000000 3.409788 4.229536 -2.949199 3.431067 16.897500 -10.377213 -16.561361 41.300972 10.794865 -175.887575 79.783303 179.707919 0.000000 0.000000 0.000000 
